<?xml version="1.0" encoding="UTF-8"?><svg id="katman_5" xmlns="http://www.w3.org/2000/svg" xmlns:xlink="http://www.w3.org/1999/xlink" viewBox="0 0 1920 1080"><defs><style>.cls-1{fill:url(#Adsız_degrade_4-5);}.cls-2{fill:url(#Adsız_degrade_4-2);}.cls-3{fill:url(#Adsız_degrade_42);}.cls-3,.cls-4,.cls-5{fill-rule:evenodd;}.cls-6{fill:url(#Adsız_degrade_4-3);}.cls-7{fill:url(#Adsız_degrade_4);}.cls-8{fill:url(#Adsız_degrade_4-6);}.cls-4{fill:url(#Adsız_degrade_4-7);}.cls-5{fill:url(#Adsız_degrade_4-4);}</style><linearGradient id="Adsız_degrade_4" x1="77.65" y1="540" x2="429.58" y2="540" gradientUnits="userSpaceOnUse"><stop offset="0" stop-color="#07a4e7"/><stop offset="1" stop-color="#075885"/></linearGradient><linearGradient id="Adsız_degrade_4-2" x1="393.86" y1="756" x2="136.64" y2="310.49" xlink:href="#Adsız_degrade_4"/><linearGradient id="Adsız_degrade_4-3" x1="1078.08" y1="451.29" x2="1303.26" y2="676.47" xlink:href="#Adsız_degrade_4"/><linearGradient id="Adsız_degrade_4-4" x1="961.02" y1="472.19" x2="1395.81" y2="472.19" xlink:href="#Adsız_degrade_4"/><linearGradient id="Adsız_degrade_4-5" x1="1510.03" y1="-1486.37" x2="1907.94" y2="-1486.37" gradientTransform="translate(2403.5 -946.37) rotate(-180)" xlink:href="#Adsız_degrade_4"/><linearGradient id="Adsız_degrade_4-6" x1="1853.1" y1="-1298.98" x2="1618.75" y2="-1704.88" gradientTransform="translate(2403.5 -946.37) rotate(-180)" xlink:href="#Adsız_degrade_4"/><linearGradient id="Adsız_degrade_4-7" x1="1457.21" y1="343.54" x2="1753.73" y2="640.06" xlink:href="#Adsız_degrade_4"/><linearGradient id="Adsız_degrade_42" x1="-493.86" y1="3044.15" x2="-678.94" y2="3229.23" gradientTransform="translate(-1486.59 -30.53) rotate(-90)" gradientUnits="userSpaceOnUse"><stop offset=".12" stop-color="#07a4e7"/><stop offset=".43" stop-color="#077fb8" stop-opacity=".52"/><stop offset=".78" stop-color="#075885" stop-opacity="0"/></linearGradient></defs><g><path class="cls-7" d="M159.2,587.99v199.92c0,15.9-20.01,22.94-29.96,10.54l-51.59-55.87V361.42c0-9.3,7.54-16.83,16.83-16.83h47.89c9.3,0,16.83,7.54,16.83,16.83v145.02h188.83v-169.01l51.59-55.87c9.95-12.4,29.96-5.36,29.96,10.54v426.49c0,9.3-7.54,16.83-16.83,16.83h-47.89c-9.3,0-16.83-7.54-16.83-16.83v-130.59H159.2Z"/><path class="cls-2" d="M77.65,734.13V344.55h81.55v161.85h188.83l81.55-214.35v443.33h-81.55v-147.42H159.2l-81.55,146.17Z"/></g><g><path class="cls-6" d="M1219.46,391.46v361.77c0,15.9-20.01,22.94-29.96,10.54l-51.59-55.87V391.46"/><path class="cls-5" d="M1380.44,309.9h-404.05c-11.91,0-19.28,12.99-13.18,23.22l31.04,51.97c2.77,4.64,7.77,7.48,13.17,7.48h130.48v.08l51.23,229.81c3.99,17.89,30.32,14.99,30.32-3.34v-211.21c0-8.48,6.87-15.35,15.35-15.35h114.59c5.4,0,10.41-2.84,13.17-7.48l31.04-51.97c6.11-10.23-1.26-23.22-13.18-23.22Z"/></g><g><path class="cls-1" d="M520.35,727.71l53.83-63.62h172.97s47.17-76.57,47.17-76.57H495.56s0-103.92,0-103.92l99.14-156.57h282.78c13.07,0,20.15,15.29,11.72,25.26l-53.83,63.62h-195.54s-44.44,67.69-44.44,67.69l-5.47,15.04,303.56,.68v88.2s-99.14,165.45-99.14,165.45h-262.27c-13.07,0-20.15-15.29-11.72-25.26Z"/><path class="cls-8" d="M595.38,483.6h0s-5.47,15.04-5.47,15.04l303.56,.68v88.2s-99.14,165.45-99.14,165.45h-262.27c-13.07,0-20.15-15.29-11.72-25.26l53.83-63.62h172.97s47.17-76.57,47.17-76.57H495.56s0-103.92,0-103.92l99.14-156.57,8.47,16.68c22.67,44.65,19.7,98.02-7.78,139.88Z"/></g><g><path class="cls-4" d="M1827.01,326.61h-345.89c-9.3,0-16.83,7.54-16.83,16.83v393.46c0,12.78,14.09,20.68,25.18,14.13l56.37-33.3c5.03-2.97,8.11-8.34,8.11-14.13v-107.7h237.58c7.72,0,14.24-5.74,15.22-13.39l5.15-40.19,30.28-198.05c1.42-9.29-5.77-17.67-15.17-17.67Zm-98.92,180.68l-174.5-.69v-90.68h188.24l-13.74,91.37Z"/><path class="cls-3" d="M1795.94,595.11l-312.21,1.36c-15.08,0-24.41-14.09-16.68-25.18l39.29-56.37c3.51-5.03,9.84-8.11,16.68-8.11h293.92s-21,88.3-21,88.3Z"/></g></svg>